<svg width="137" height="64" viewBox="0 0 137 64" fill="none" xmlns="http://www.w3.org/2000/svg">
<path d="M129.056 59.4709H122H49.3236H12H6.01054L7.67788 53.7182L12 54.9709C7.67788 53.7182 7.67816 53.7173 7.67846 53.7162L7.67921 53.7136L7.68122 53.7067L7.68728 53.686L7.70749 53.6176C7.72456 53.5601 7.74881 53.4791 7.78017 53.3761C7.84288 53.1701 7.93408 52.8758 8.05317 52.5047C8.29117 51.7632 8.64148 50.7124 9.09929 49.4464C10.0115 46.9236 11.3668 43.5009 13.1309 39.9486C14.8829 36.4206 17.1102 32.6175 19.8073 29.4232C22.4602 26.281 25.9068 23.3244 30.1854 22.1901L129.056 59.4709ZM129.056 59.4709L126.08 53.0729C117.28 34.1559 109.791 22.0687 103.283 14.7951C96.8366 7.59143 90.5788 4.29269 84.4128 5.17271C80.1094 5.78161 76.9079 8.31926 74.4676 10.9854C72.4412 13.1994 70.5782 15.9237 68.8933 18.3875C68.5919 18.8282 68.2961 19.2607 68.0062 19.6804C63.7883 25.7858 60.3704 29.703 55.3364 30.145L129.056 59.4709ZM55.3357 30.1451C51.6828 30.4648 49.1515 28.8434 45.4467 26.309C45.3531 26.2449 45.2581 26.1799 45.1619 26.1139C41.8013 23.8096 36.8583 20.4203 30.1865 22.1898L55.3357 30.1451Z" fill="#DCAF7A" stroke="white" stroke-width="9"/>
</svg>
