<svg width="83" height="69" viewBox="0 0 83 69" fill="none" xmlns="http://www.w3.org/2000/svg">
<path d="M25.7684 54.3176C25.4998 54.3176 25.2043 54.3176 24.9356 54.3437C24.9356 54.3176 24.9625 54.3176 24.9356 54.2915C24.9088 54.2654 24.855 54.2654 24.8013 54.2654C24.4521 54.2654 24.1028 54.2393 23.7805 54.2132C22.7865 54.1088 21.8193 53.9783 20.8522 53.7695C19.1866 53.404 17.5747 52.8559 16.0435 52.0729C14.2704 51.1855 12.7123 50.0631 11.3422 48.6798C10.8855 48.21 10.4556 47.7141 10.0795 47.1659C10.0527 47.1137 10.0258 47.0615 9.9452 47.0354C9.9452 46.5656 9.91833 46.0958 9.91833 45.626C9.91833 45.626 9.91833 45.626 9.91833 45.5999V45.5738C9.91833 45.3911 9.91833 45.2084 9.91833 45.0257C9.99893 45.0257 9.99893 44.9474 9.97207 44.8952C9.97207 44.3993 9.99893 43.9033 10.0258 43.4074C10.0527 42.9376 10.0795 42.4417 10.1064 41.9719C10.1601 41.3716 10.2139 40.7712 10.2676 40.197C10.3482 39.414 10.4556 38.6571 10.5631 37.8741C10.7511 36.6212 10.9661 35.3684 11.2347 34.1155C11.5033 32.8105 11.7989 31.5316 12.1481 30.2265C12.5242 28.8954 12.9003 27.5642 13.357 26.2331C13.6257 25.3979 13.9212 24.5887 14.2167 23.7796C14.6465 22.6312 15.1301 21.4827 15.6136 20.3604C15.9629 19.5513 16.339 18.7683 16.7419 17.9852C16.7957 17.8808 16.8494 17.8025 16.9569 17.7503C17.4404 17.3849 17.9508 17.0456 18.4344 16.7063C19.8851 15.7406 21.4432 14.9314 23.0551 14.2528C24.1028 13.8091 25.1506 13.4698 26.252 13.1566C27.1654 12.8956 28.0788 12.7129 29.0191 12.5563C29.3683 12.5041 29.7175 12.4519 30.0668 12.4258C30.0936 12.4258 30.1474 12.4258 30.1474 12.3736C30.4966 12.3736 30.8458 12.3736 31.1682 12.3475C31.1682 12.3736 31.1951 12.3997 31.1951 12.4258C31.3294 12.5824 31.4906 12.7651 31.6249 12.9217C31.5981 12.9739 31.5712 12.9739 31.5175 13C30.6578 13.261 29.7981 13.5481 28.9385 13.8613C27.434 14.4094 25.9565 15.0358 24.5058 15.7406C23.5924 16.1843 22.679 16.6802 21.7925 17.2022C20.7448 17.8286 19.7239 18.5072 18.7568 19.2903C18.6225 19.4208 18.4613 19.5252 18.3001 19.6818C18.8374 19.3947 19.3478 19.1337 19.8851 18.8727C20.3955 18.6378 20.8791 18.3767 21.3895 18.1418C22.5716 17.6198 23.7536 17.15 24.9625 16.7324C26.4401 16.2104 27.9176 15.7928 29.4489 15.4535C30.1742 15.2968 30.8996 15.1402 31.6249 15.0358C32.5652 14.9053 33.4786 14.7748 34.4188 14.6704C35.4666 14.5399 36.5143 14.4355 37.562 14.3833C38.2067 14.3311 38.8515 14.3311 39.4962 14.305C39.7112 14.305 39.8992 14.3311 40.1141 14.305C40.329 14.305 40.544 14.305 40.732 14.305C41.3499 14.305 41.9947 14.3311 42.6125 14.3833C43.2304 14.4094 43.8483 14.4616 44.4662 14.5399C45.6751 14.6704 46.8571 14.827 48.0392 15.0619C49.3824 15.323 50.7256 15.6362 52.042 16.0277C53.6002 16.4714 55.1046 17.0195 56.5821 17.6459C57.1731 17.8808 57.7373 18.1418 58.3015 18.4028C58.7044 18.5856 59.0805 18.7683 59.5104 18.9771C59.4298 18.8727 59.3223 18.7944 59.2417 18.7422C58.5432 18.194 57.791 17.6981 57.012 17.2283C56.0448 16.6541 55.0777 16.1321 54.0569 15.6362C53.3852 15.2968 52.6868 15.0097 51.9614 14.7226C50.3764 14.0701 48.7914 13.522 47.1527 13.0522C47.0183 13 46.8571 13 46.7228 12.9217C46.9377 12.6868 47.1258 12.4519 47.3407 12.217C47.3676 12.1909 47.4213 12.1648 47.3676 12.1387C47.7168 12.1387 48.0929 12.1386 48.4421 12.1125L48.4153 12.1387C48.4153 12.1387 48.4153 12.1387 48.4421 12.1387C48.469 12.1387 48.4959 12.1648 48.5227 12.1648C49.1138 12.217 49.7316 12.2692 50.3227 12.3736C51.8808 12.6085 53.3852 13 54.8628 13.4959C56.1523 13.9396 57.3881 14.4616 58.5701 15.088C59.6984 15.6623 60.773 16.3148 61.7939 17.0456C61.8744 17.0978 61.9282 17.15 61.955 17.2283C62.358 17.933 62.7072 18.6378 63.0565 19.3425C63.7012 20.6475 64.3191 22.0048 64.8564 23.3359C65.2594 24.3277 65.6355 25.3196 66.0116 26.3114C66.4683 27.5642 66.8713 28.8432 67.2474 30.096C67.516 31.0095 67.7578 31.9231 67.9996 32.8366C68.2413 33.8284 68.4831 34.8203 68.6712 35.8382C68.8324 36.6473 68.9936 37.4825 69.101 38.2917C69.2085 39.0225 69.3159 39.7794 69.3965 40.5102C69.4771 41.215 69.5308 41.8936 69.6114 42.5983C69.6114 42.6766 69.6114 42.7549 69.6383 42.8071C69.6383 42.8332 69.6652 42.8854 69.692 42.8332C69.692 43.0681 69.692 43.303 69.692 43.5379C69.6652 43.5379 69.6652 43.5379 69.6652 43.564C69.6652 43.5901 69.6652 43.5901 69.692 43.5901C69.7189 44.4254 69.7189 45.2606 69.7458 46.0697C69.692 46.0958 69.6652 46.1741 69.6383 46.2263C68.9936 47.1921 68.1876 48.0534 67.3279 48.8364C66.6295 49.4628 65.8773 50.037 65.0982 50.533C63.8087 51.3682 62.4386 52.0207 60.9879 52.5427C60.1551 52.8298 59.2954 53.0908 58.4358 53.2735C57.3612 53.5085 56.2866 53.6651 55.1852 53.7695C55.1314 53.7695 55.0777 53.7695 55.0508 53.7956C55.024 53.8217 55.0508 53.8217 55.0508 53.8478C54.7822 53.8478 54.4867 53.8478 54.218 53.8739C54.218 53.8217 54.1643 53.7695 54.1374 53.7434C53.0629 52.5166 51.9883 51.2899 50.9137 50.037C50.8868 49.9848 50.8331 49.9587 50.8062 49.8804C50.8331 49.8543 50.86 49.8543 50.9137 49.8282C52.1763 49.4367 53.4121 48.9669 54.5941 48.3405C55.4001 47.8968 56.206 47.427 56.9314 46.8788C57.6298 46.3568 58.2746 45.7826 58.8656 45.1562C59.2148 44.7908 59.5372 44.3993 59.8327 43.9817C59.8596 43.9555 59.8865 43.9294 59.8596 43.8772C59.2686 44.2688 58.6507 44.6603 58.0328 44.9996C57.2537 45.4433 56.4478 45.8609 55.615 46.2263C55.0777 46.4612 54.5404 46.67 54.03 46.9049C52.9017 47.3748 51.7734 47.7924 50.5913 48.1578C49.275 48.5754 47.9317 48.8886 46.5616 49.1496C45.9975 49.254 45.4065 49.3584 44.8423 49.4367C44.1975 49.5411 43.5259 49.5933 42.8812 49.6716C42.317 49.7238 41.7797 49.776 41.2156 49.776C40.2216 49.8021 39.2276 49.8282 38.2336 49.776C37.562 49.7499 36.8904 49.6977 36.2456 49.6455C35.0636 49.5411 33.9084 49.3845 32.7264 49.1496C31.2488 48.8625 29.7981 48.5232 28.3474 48.0795C27.1923 47.7402 26.064 47.3487 24.9625 46.931C24.1297 46.6178 23.2969 46.2524 22.5178 45.8609C22.1149 45.6521 21.685 45.4433 21.3089 45.2084C20.9059 44.9474 20.4761 44.7386 20.0463 44.5037C20.0463 44.5037 20.0194 44.4776 19.9926 44.5037C20.0194 44.582 20.1 44.6603 20.1537 44.7386C20.5836 45.2867 21.094 45.8087 21.6044 46.2785C22.0611 46.67 22.5178 47.0616 23.0014 47.4009C23.9954 48.1056 25.0431 48.6798 26.1445 49.1757C27.0042 49.5411 27.8907 49.8804 28.8041 50.1414C28.8579 50.1675 28.9116 50.1675 28.9653 50.1936C28.9653 50.2197 28.9385 50.2458 28.9385 50.2458C28.24 51.1072 27.5684 51.9685 26.8699 52.8298C26.4938 53.2996 26.0908 53.7956 25.7147 54.2654C25.7684 54.2393 25.7147 54.2654 25.7684 54.3176ZM24.8819 36.569C24.9088 36.9344 24.9356 37.2998 25.0162 37.6653C25.3117 38.9964 25.9834 40.1187 27.0848 40.954C28.3743 41.9197 29.825 42.259 31.41 41.8414C32.807 41.476 33.8547 40.6146 34.5532 39.414C35.2516 38.2134 35.4666 36.9344 35.2785 35.6033C35.0904 34.2982 34.5263 33.202 33.5323 32.2885C32.3771 31.2706 31.0339 30.8007 29.4758 30.9834C28.3206 31.1139 27.3534 31.6099 26.5475 32.419C25.3923 33.5935 24.8819 35.003 24.8819 36.569ZM48.9526 41.7109C49.2481 41.6848 49.5436 41.6848 49.8122 41.6065C51.1823 41.3194 52.2569 40.5885 53.036 39.4662C53.9494 38.1612 54.218 36.7256 53.9763 35.1857C53.7613 33.9067 53.1972 32.8105 52.2032 31.9492C50.8331 30.7485 49.2212 30.3309 47.4213 30.8268C46.1049 31.1922 45.1109 32.0014 44.4125 33.1498C43.714 34.2982 43.4722 35.525 43.6334 36.83C43.7946 38.1351 44.3319 39.2574 45.2721 40.197C46.293 41.1889 47.5019 41.7109 48.9526 41.7109Z" fill="white"/>
<path d="M34.1133 1.99463L2 16.9515V53.0239L41.1518 66.661L80.7435 53.0239L73.265 10.7928L34.1133 1.99463Z" stroke="#FFB3FC" stroke-width="3"/>
</svg>
