<svg width="91" height="75" viewBox="0 0 91 75" fill="none" xmlns="http://www.w3.org/2000/svg">
<path d="M76.6456 13.6716C76.3976 15.0176 76.1271 16.3635 75.8792 17.7319C74.4365 25.0671 72.9938 32.38 71.5736 39.7153C70.4691 45.3906 69.3645 51.0659 68.2148 56.7412C68.0796 57.3918 67.8316 58.0423 67.516 58.6031C66.975 59.5677 66.0057 59.949 64.9462 59.635C64.27 59.4331 63.5937 59.1639 63.0076 58.7825C58.7246 55.7991 54.4416 52.7932 50.2037 49.7873C49.7303 49.4508 49.4598 49.4732 49.0541 49.877C46.9576 51.9856 44.8387 54.0494 42.7197 56.1356C42.1336 56.7188 41.4574 57.1226 40.4881 57.0777C40.5106 56.2029 40.5331 55.3504 40.6008 54.498C40.7135 52.6137 40.8262 50.707 40.9389 48.8227C41.0291 47.1403 41.0967 45.4579 41.2319 43.7755C41.2545 43.5287 41.4799 43.282 41.6828 43.1025C45.5826 39.4685 49.5049 35.857 53.4272 32.223C57.5975 28.3647 61.7678 24.5063 65.9381 20.648C66.2311 20.3788 66.6594 20.1097 66.4115 19.661C66.141 19.1899 65.6225 19.347 65.1942 19.4591C64.8335 19.5713 64.4954 19.7732 64.1798 19.9751C54.1035 26.4355 44.0497 32.9184 34.0185 39.4237C33.5676 39.7153 33.207 39.7826 32.6885 39.6256C28.4731 38.3694 24.2352 37.158 19.9973 35.9243C19.0505 35.6551 18.1488 35.2962 17.698 34.2867C17.698 34.1746 17.698 34.0624 17.698 33.9502C18.1714 32.9408 19.0505 32.3576 20.0424 31.9314C20.2678 31.8416 20.4932 31.7295 20.7412 31.6397C36.7911 25.1793 52.8637 18.7189 68.9587 12.2809C70.424 11.6976 71.8667 11.0695 73.377 10.5985C74.8873 10.1274 76.1948 11.0247 76.4878 12.5949C76.5103 12.7519 76.6005 12.909 76.6456 13.0884C76.6456 13.2679 76.6456 13.4698 76.6456 13.6716Z" fill="white"/>
<path d="M89.4029 40.8266L85.8837 2.11475H41.0131L3.18103 35.1078L26.936 50.0647V72.5L49.8112 67.661L72.2465 72.5L89.4029 40.8266Z" stroke="#FFB3FC" stroke-width="3"/>
</svg>
