<svg width="87" height="66" viewBox="0 0 87 66" fill="none" xmlns="http://www.w3.org/2000/svg">
<path d="M68.1033 18.9607C68.1033 19.0703 68.1033 19.158 68.1033 19.2676C67.9895 19.421 67.8986 19.5745 67.7848 19.7279C66.6475 21.3721 65.3054 22.8409 63.7586 24.1124C63.1217 24.6386 62.8259 25.2743 62.8487 26.1074C62.8714 27.05 62.8032 27.9927 62.735 28.9135C62.3028 33.7583 60.8014 38.2963 58.0945 42.3958C51.2476 52.7651 41.2616 57.1277 28.7052 56.2288C24.5879 55.9439 20.7209 54.7162 17.1041 52.8089C16.7629 52.6336 16.4899 52.3047 16.1942 52.0636C16.1942 51.932 16.1942 51.8005 16.1942 51.669C16.4899 51.1867 16.9448 51.0551 17.5363 51.0551C20.9029 51.099 24.1102 50.4632 27.1356 49.0383C28.1137 48.5779 29.0236 48.0298 30.0927 47.4599C29.797 47.3722 29.6833 47.3283 29.5695 47.3064C27.4313 46.9337 25.566 46.013 23.9737 44.6099C22.6089 43.4042 21.6308 41.9792 21.0166 40.2912C20.8119 39.7212 21.0393 39.4362 21.6535 39.4362C21.8355 39.4362 22.0175 39.4801 22.2222 39.502C22.6771 39.5239 23.1321 39.5459 23.5643 39.5678C23.4505 39.3924 23.3368 39.3266 23.2003 39.2609C19.3561 37.2659 17.2861 34.1748 16.9676 29.9657C16.8993 29.0888 17.2406 28.8915 18.0595 29.2204C18.7874 29.5054 19.5153 29.7684 20.2204 30.0315C20.2432 29.9877 20.2659 29.9438 20.2887 29.9219C20.1977 29.8123 20.1067 29.7027 20.0157 29.5931C16.6491 26.0855 15.9667 21.2844 18.2187 17.0096C18.5144 16.4396 18.9011 16.3738 19.3788 16.8561C19.538 17.0315 19.6973 17.2069 19.8565 17.3822C22.063 19.7499 24.5879 21.7448 27.4768 23.3013C31.2073 25.3182 35.1881 26.502 39.4646 26.8527C40.238 26.9185 40.329 26.787 40.329 26.0416C40.3062 25.0551 40.2607 24.0686 40.42 23.104C41.4436 16.8342 47.5853 13.1951 53.6361 14.3131C55.4786 14.6419 57.1391 15.3873 58.595 16.5273C59.0954 16.9219 59.6413 17.163 60.301 16.9657C60.8697 16.7903 61.4611 16.6588 62.007 16.4177C63.2126 15.8915 64.3955 15.2996 65.6011 14.7735C65.8058 14.6858 66.1698 14.7077 66.329 14.8173C66.4655 14.905 66.511 15.2777 66.4427 15.475C65.9651 16.9438 65.1917 18.2811 64.0998 19.421C63.9633 19.5526 63.8496 19.706 63.7131 19.8376C63.7358 19.8814 63.7813 19.9252 63.8041 19.991C64.8504 19.6183 65.8968 19.2676 66.9432 18.851C67.4209 18.6099 67.7848 18.588 68.1033 18.9607Z" fill="white"/>
<path d="M48.7474 64.2619H10.9153L1.67725 40.067L10.9153 3.11475L32.4708 17.6317L39.9492 7.95373H63.7042L83.5001 14.1124L71.1826 29.0693L63.7042 56.7835L48.7474 64.2619Z" stroke="#FFB3FC" stroke-width="3"/>
</svg>
