<svg width="1280" height="832" viewBox="0 0 1280 832" fill="none" xmlns="http://www.w3.org/2000/svg">
<g clip-path="url(#clip0_1_24)">
<rect width="1280" height="832" fill="url(#paint0_linear_1_24)"/>
<path d="M-8.59488 595.248C-7.11833 582.174 -3.73097 569.65 2.60948 557.993C25.9736 515.304 74.2652 497.976 121.428 515.461C127.594 517.745 131.242 519.557 133.935 511.287C151.48 457.885 224.091 421.418 291.664 450.009C336.395 468.912 366.794 502.071 384.947 546.021C391.635 562.247 391.635 578.551 377.39 595.091C399.017 590.129 418.299 587.057 437.929 590.207C456.603 593.2 474.582 598.005 488.913 611.001C503.678 624.391 509.15 640.695 501.854 659.598C499.422 665.899 500.117 666.923 506.805 668.577C522.96 672.751 530.343 687.086 525.566 703.548C519.312 724.893 504.46 740.173 485.439 750.727C435.584 778.294 385.381 773.804 336.134 748.994C313.117 737.416 308.254 737.573 293.314 758.367C272.035 788.061 242.07 793.889 208.196 788.218C188.219 784.831 169.98 776.325 152.869 766.086C138.886 757.737 127.247 758.446 114.132 768.921C63.4082 809.405 -10.94 805.625 -57.5813 760.73C-63.0532 755.453 -66.7011 753.799 -74.4313 757.343C-90.7601 764.747 -108.131 768.134 -126.371 763.644C-156.683 756.083 -172.317 731.587 -168.409 697.089C-166.151 677.005 -139.399 656.605 -114.124 656.999C-107.871 657.077 -106.047 656.526 -104.744 650.383C-94.0606 596.666 -65.0509 579.653 -11.7217 595.17C-10.94 595.485 -9.98456 595.248 -8.59488 595.248Z" fill="#26204C"/>
<path d="M804.764 523.948C806.419 509.298 810.215 495.266 817.321 482.205C843.505 434.374 897.625 414.959 950.479 434.55C957.39 437.11 961.478 439.139 964.496 429.873C984.158 370.04 1065.53 329.18 1141.26 361.215C1191.39 382.395 1225.46 419.548 1245.8 468.791C1253.3 486.971 1253.3 505.239 1237.33 523.771C1261.57 518.211 1283.18 514.77 1305.18 518.3C1326.11 521.653 1346.26 527.036 1362.32 541.598C1378.86 556.6 1385 574.868 1376.82 596.048C1374.09 603.108 1374.87 604.255 1382.37 606.109C1400.47 610.786 1408.75 626.847 1403.39 645.292C1396.38 669.207 1379.74 686.328 1358.42 698.153C1302.55 729.041 1246.29 724.011 1191.1 696.212C1165.3 683.239 1159.85 683.416 1143.11 706.714C1119.26 739.984 1085.68 746.514 1047.72 740.16C1025.33 736.366 1004.89 726.835 985.716 715.362C970.044 706.008 957.001 706.802 942.303 718.539C885.457 763.9 802.136 759.664 749.866 709.361C743.733 703.448 739.645 701.595 730.982 705.566C712.683 713.862 693.215 717.657 672.774 712.626C638.803 704.154 621.282 676.709 625.663 638.055C628.193 615.551 658.173 592.695 686.499 593.136C693.507 593.224 695.551 592.606 697.011 585.723C708.984 525.536 741.495 506.474 801.26 523.859C802.136 524.212 803.207 523.948 804.764 523.948Z" fill="#26204D"/>
<path d="M266.388 715.025C244.679 648.3 203.134 602.07 138.787 577.922C49.6076 544.559 -62.9994 590.631 -99.7021 675.308C-107.824 694.054 -111.416 713.595 -108.761 734.089C-107.98 740.762 -106.262 745.528 -117.194 745.846C-143.745 746.64 -162.331 766.975 -160.925 790.805C-159.52 813.524 -135.312 835.13 -110.166 831.476C-95.0167 829.252 -91.893 835.447 -85.4896 846.727C-61.75 888.668 -22.0798 903.92 22.9005 906.62C75.6899 909.798 122.544 892.958 163.152 858.642C170.18 852.605 173.928 851.97 181.425 858.166C245.928 911.704 339.012 909.957 400.392 854.035C407.888 847.204 413.511 845.297 423.35 849.11C441.78 856.418 461.146 861.184 481.294 857.848C499.411 854.829 514.56 846.727 522.994 829.41C535.02 804.786 518.621 778.096 491.758 779.367C484.261 779.685 480.513 779.367 478.17 771.265C472.548 751.883 458.96 740.762 439.593 737.108C428.348 735.043 418.977 730.276 410.7 722.174C364.782 676.897 319.958 674.355 266.388 715.025Z" fill="#393361"/>
<path d="M837.003 715.286C838.604 704.482 842.279 694.134 849.157 684.501C874.502 649.226 926.887 634.907 978.047 649.356C984.737 651.243 988.694 652.74 991.615 645.906C1010.65 601.779 1089.41 571.645 1162.71 595.271C1211.24 610.891 1244.21 638.292 1263.9 674.609C1271.16 688.016 1271.16 701.489 1255.71 715.156C1279.17 711.056 1300.08 708.518 1321.38 711.121C1341.63 713.594 1361.14 717.564 1376.68 728.303C1392.7 739.368 1398.64 752.84 1390.72 768.46C1388.08 773.667 1388.84 774.513 1396.09 775.88C1413.62 779.33 1421.63 791.175 1416.44 804.778C1409.66 822.415 1393.55 835.042 1372.92 843.763C1318.83 866.543 1264.38 862.833 1210.95 842.331C1185.99 832.764 1180.71 832.894 1164.5 850.076C1141.42 874.613 1108.92 879.429 1072.17 874.743C1050.5 871.945 1030.72 864.916 1012.15 856.455C996.985 849.556 984.36 850.141 970.133 858.798C915.11 892.251 834.459 889.127 783.864 852.029C777.928 847.668 773.971 846.301 765.585 849.23C747.872 855.348 729.029 858.147 709.243 854.437C676.361 848.189 659.402 827.948 663.641 799.441C666.091 782.844 695.11 765.987 722.528 766.313C729.311 766.378 731.29 765.922 732.703 760.846C744.292 716.458 775.761 702.4 833.611 715.221C834.459 715.482 835.495 715.286 837.003 715.286Z" fill="#393361"/>
<path d="M681.527 793.557C668.242 752.737 642.82 724.454 603.445 709.681C548.875 689.272 479.968 717.457 457.509 769.259C452.54 780.727 450.342 792.682 451.966 805.219C452.444 809.301 453.495 812.217 446.805 812.411C430.558 812.897 419.186 825.338 420.046 839.916C420.906 853.814 435.719 867.032 451.106 864.797C460.376 863.436 462.288 867.227 466.206 874.127C480.733 899.785 505.008 909.116 532.532 910.768C564.835 912.712 593.506 902.409 618.354 881.416C622.655 877.723 624.949 877.334 629.536 881.125C669.007 913.878 725.967 912.809 763.526 878.598C768.113 874.419 771.554 873.252 777.575 875.585C788.852 880.056 800.703 882.971 813.032 880.93C824.118 879.084 833.388 874.127 838.549 863.533C845.908 848.469 835.873 832.141 819.435 832.919C814.847 833.113 812.554 832.919 811.12 827.962C807.68 816.105 799.365 809.301 787.514 807.066C780.633 805.802 774.899 802.887 769.834 797.93C741.736 770.231 714.307 768.676 681.527 793.557Z" fill="#393361"/>
<path d="M56.5 239L56.5 309.857" stroke="#FFB3FC" stroke-width="2" stroke-linecap="round" stroke-linejoin="round"/>
<path d="M41 274.429L72 274.429" stroke="#FFB3FC" stroke-width="2" stroke-linecap="round" stroke-linejoin="round"/>
<path d="M798.094 56L798.094 105.857" stroke="#FFB3FC" stroke-width="2" stroke-linecap="round" stroke-linejoin="round"/>
<path d="M787.188 80.9286L809 80.9286" stroke="#FFB3FC" stroke-width="2" stroke-linecap="round" stroke-linejoin="round"/>
<path d="M778.094 406L778.094 455.857" stroke="#FFB3FC" stroke-width="2" stroke-linecap="round" stroke-linejoin="round"/>
<path d="M767.188 430.929L789 430.929" stroke="#FFB3FC" stroke-width="2" stroke-linecap="round" stroke-linejoin="round"/>
</g>
<defs>
<linearGradient id="paint0_linear_1_24" x1="640" y1="0" x2="640" y2="832" gradientUnits="userSpaceOnUse">
<stop stop-color="#100D24"/>
<stop offset="0.750691" stop-color="#1D1939"/>
</linearGradient>
<clipPath id="clip0_1_24">
<rect width="1280" height="832" fill="white"/>
</clipPath>
</defs>
</svg>
