<svg width="1280" height="832" viewBox="0 0 1280 832" fill="none" xmlns="http://www.w3.org/2000/svg">
<g clip-path="url(#clip0_1_134)">
<rect width="1280" height="832" fill="#100D24"/>
<path d="M1113 183L1113 228.714" stroke="#FFB3FC" stroke-width="2" stroke-linecap="round" stroke-linejoin="round"/>
<path d="M1103 205.857L1123 205.857" stroke="#FFB3FC" stroke-width="2" stroke-linecap="round" stroke-linejoin="round"/>
<path d="M171.981 476.169C158.318 434.171 132.172 405.073 91.6743 389.874C35.5481 368.876 -35.3223 397.874 -58.4215 451.17C-63.5329 462.97 -65.7937 475.269 -64.1226 488.168C-63.6312 492.368 -62.5499 495.368 -69.4306 495.568C-86.1406 496.067 -97.8377 508.867 -96.953 523.866C-96.0684 538.165 -80.8327 551.764 -65.0073 549.464C-55.4727 548.064 -53.5068 551.964 -49.4767 559.064C-34.536 585.462 -9.56913 595.061 18.7397 596.761C51.9633 598.761 81.4516 588.162 107.008 566.563C111.431 562.763 113.791 562.363 118.509 566.263C159.104 599.961 217.688 598.861 256.318 563.663C261.036 559.363 264.574 558.164 270.767 560.563C282.366 565.163 294.554 568.163 307.234 566.063C318.636 564.163 328.171 559.063 333.479 548.164C341.048 532.665 330.727 515.866 313.82 516.666C309.102 516.866 306.743 516.666 305.268 511.567C301.73 499.367 293.178 492.368 280.99 490.068C273.912 488.768 268.015 485.768 262.805 480.668C233.907 452.17 205.696 450.57 171.981 476.169Z" fill="#393361"/>
<path d="M1043.5 449.286L1043.5 520.143" stroke="#FFB3FC" stroke-width="2" stroke-linecap="round" stroke-linejoin="round"/>
<path d="M1028 484.714L1059 484.714" stroke="#FFB3FC" stroke-width="2" stroke-linecap="round" stroke-linejoin="round"/>
<path d="M132.5 172L132.5 229.143" stroke="#FFB3FC" stroke-width="2" stroke-linecap="round" stroke-linejoin="round"/>
<path d="M120 200.571L145 200.571" stroke="#FFB3FC" stroke-width="2" stroke-linecap="round" stroke-linejoin="round"/>
</g>
<defs>
<clipPath id="clip0_1_134">
<rect width="1280" height="832" fill="white"/>
</clipPath>
</defs>
</svg>
