<svg width="76" height="76" viewBox="0 0 76 76" fill="none" xmlns="http://www.w3.org/2000/svg">
<path d="M20.4999 59V55.5C20.4999 45.8351 28.335 38 37.9999 38C47.6648 38 55.4999 45.8351 55.4999 55.5V59" stroke="white" stroke-width="5" stroke-linecap="round"/>
<path d="M38 38C43.7992 38 48.5 33.2992 48.5 27.5C48.5 21.701 43.7992 17 38 17C32.2008 17 27.5 21.701 27.5 27.5C27.5 33.2992 32.2008 38 38 38Z" stroke="white" stroke-width="5" stroke-linecap="round" stroke-linejoin="round"/>
<path d="M38 73C57.33 73 73 57.33 73 38C73 18.67 57.33 3 38 3C18.67 3 3 18.67 3 38C3 57.33 18.67 73 38 73Z" stroke="white" stroke-width="5"/>
</svg>
