<svg width="76" height="80" viewBox="0 0 76 80" fill="none" xmlns="http://www.w3.org/2000/svg">
<path d="M3 65.6058H14.0481M14.0481 65.6058H25.0962M14.0481 65.6058V54.5577M14.0481 65.6058V76.6539" stroke="white" stroke-width="5" stroke-linecap="round" stroke-linejoin="round"/>
<path d="M21.4422 3H56.4278L73 19.5721V65.6058" stroke="white" stroke-width="5" stroke-linecap="round" stroke-linejoin="round"/>
<path d="M36.1731 76.6539H56.4279C59.4786 76.6539 61.9519 74.1806 61.9519 71.1299V27.8528C61.9519 27.2668 61.7192 26.7047 61.3049 26.2903L49.7095 14.6953C49.2952 14.2809 48.7333 14.0481 48.1473 14.0481H12.2355C9.18468 14.0481 6.71149 16.5213 6.71149 19.5721V43.5097" stroke="white" stroke-width="5" stroke-linecap="round" stroke-linejoin="round"/>
<path d="M47.2212 14.0481V26.5693C47.2212 27.7896 48.2103 28.7789 49.4308 28.7789H61.9519" stroke="white" stroke-width="5" stroke-linecap="round" stroke-linejoin="round"/>
</svg>
