<svg width="76" height="76" viewBox="0 0 76 76" fill="none" xmlns="http://www.w3.org/2000/svg">
<path d="M38 73C57.3298 73 73 57.3298 73 38C73 18.67 57.3298 3 38 3C18.67 3 3 18.67 3 38C3 57.3298 18.67 73 38 73Z" stroke="white" stroke-width="5" stroke-linecap="round" stroke-linejoin="round"/>
<path d="M4.75 39.75L24 46.75L20.5 59L24 69.5" stroke="white" stroke-width="5" stroke-linecap="round" stroke-linejoin="round"/>
<path d="M55.5 67.75L53.75 59L45 55.5V43.25L55.5 39.75L71.25 41.5" stroke="white" stroke-width="5" stroke-linecap="round" stroke-linejoin="round"/>
<path d="M62.5 15.2499L60.75 20.4999L48.5 22.2499V32.7499L57.25 29.2499H64.25L71.25 32.7499" stroke="white" stroke-width="5" stroke-linecap="round" stroke-linejoin="round"/>
<path d="M4.75 32.75L13.5 25.75L22.25 24L29.25 13.5L25.75 6.5" stroke="white" stroke-width="5" stroke-linecap="round" stroke-linejoin="round"/>
</svg>
