<svg width="76" height="76" viewBox="0 0 76 76" fill="none" xmlns="http://www.w3.org/2000/svg">
<path d="M46.7158 59.875H59.8408M59.8408 59.875H72.9658M59.8408 59.875V46.75M59.8408 59.875V73" stroke="white" stroke-width="5" stroke-linecap="round" stroke-linejoin="round"/>
<path d="M3 26.625V5.625C3 4.17526 4.17526 3 5.625 3H26.625C28.0747 3 29.25 4.17526 29.25 5.625V26.625C29.25 28.0747 28.0747 29.25 26.625 29.25H5.625C4.17526 29.25 3 28.0747 3 26.625Z" stroke="white" stroke-width="5"/>
<path d="M3 70.375V49.375C3 47.9251 4.17526 46.75 5.625 46.75H26.625C28.0747 46.75 29.25 47.9251 29.25 49.375V70.375C29.25 71.8249 28.0747 73 26.625 73H5.625C4.17526 73 3 71.8249 3 70.375Z" stroke="white" stroke-width="5"/>
<path d="M46.75 26.625V5.625C46.75 4.17526 47.9251 3 49.375 3H70.375C71.8249 3 73 4.17526 73 5.625V26.625C73 28.0747 71.8249 29.25 70.375 29.25H49.375C47.9251 29.25 46.75 28.0747 46.75 26.625Z" stroke="white" stroke-width="5"/>
</svg>
