<svg width="1047" height="179" viewBox="0 0 1047 179" fill="none" xmlns="http://www.w3.org/2000/svg">
<path d="M13 90H1034" stroke="#FFB3FC" stroke-width="10" stroke-linecap="round" stroke-linejoin="round" stroke-dasharray="90 90"/>
<path d="M10.9681 89.5C10.9681 90.8807 12.0874 92 13.4681 92C14.8489 92 15.9681 90.8807 15.9681 89.5H10.9681ZM0.134806 13.5C0.134806 20.8638 6.10434 26.8333 13.4681 26.8333C20.8319 26.8333 26.8015 20.8638 26.8015 13.5C26.8015 6.1362 20.8319 0.166667 13.4681 0.166667C6.10434 0.166667 0.134806 6.1362 0.134806 13.5ZM15.9681 89.5V13.5H10.9681V89.5H15.9681Z" fill="#FFB3FC"/>
<path d="M1030.56 89.5C1030.56 90.8807 1031.68 92 1033.06 92C1034.44 92 1035.56 90.8807 1035.56 89.5H1030.56ZM1019.73 13.5C1019.73 20.8638 1025.7 26.8333 1033.06 26.8333C1040.43 26.8333 1046.4 20.8638 1046.4 13.5C1046.4 6.1362 1040.43 0.166667 1033.06 0.166667C1025.7 0.166667 1019.73 6.1362 1019.73 13.5ZM1035.56 89.5V13.5H1030.56V89.5H1035.56Z" fill="#FFB3FC"/>
<path d="M329.299 89.5C329.299 90.8807 330.418 92 331.799 92C333.18 92 334.299 90.8807 334.299 89.5H329.299ZM318.466 13.5C318.466 20.8638 324.435 26.8333 331.799 26.8333C339.163 26.8333 345.132 20.8638 345.132 13.5C345.132 6.1362 339.163 0.166667 331.799 0.166667C324.435 0.166667 318.466 6.1362 318.466 13.5ZM334.299 89.5V13.5H329.299V89.5H334.299Z" fill="#FFB3FC"/>
<path d="M175.134 89.5C175.134 88.1193 174.014 87 172.634 87C171.253 87 170.134 88.1193 170.134 89.5H175.134ZM185.967 165.5C185.967 158.136 179.997 152.167 172.634 152.167C165.27 152.167 159.3 158.136 159.3 165.5C159.3 172.864 165.27 178.833 172.634 178.833C179.997 178.833 185.967 172.864 185.967 165.5ZM170.134 89.5L170.134 165.5H175.134L175.134 89.5H170.134Z" fill="#FFB3FC"/>
<path d="M526.234 89.5C526.234 88.1193 525.115 87 523.734 87C522.353 87 521.234 88.1193 521.234 89.5H526.234ZM537.067 165.5C537.067 158.136 531.098 152.167 523.734 152.167C516.37 152.167 510.401 158.136 510.401 165.5C510.401 172.864 516.37 178.833 523.734 178.833C531.098 178.833 537.067 172.864 537.067 165.5ZM521.234 89.5V165.5H526.234V89.5H521.234Z" fill="#FFB3FC"/>
<path d="M876.398 89.5C876.398 88.1193 875.279 87 873.898 87C872.517 87 871.398 88.1193 871.398 89.5H876.398ZM887.232 165.5C887.232 158.136 881.262 152.167 873.898 152.167C866.534 152.167 860.565 158.136 860.565 165.5C860.565 172.864 866.534 178.833 873.898 178.833C881.262 178.833 887.232 172.864 887.232 165.5ZM871.398 89.5V165.5H876.398V89.5H871.398Z" fill="#FFB3FC"/>
<path d="M711.296 89.5C711.296 90.8807 712.416 92 713.796 92C715.177 92 716.296 90.8807 716.296 89.5H711.296ZM700.463 13.5C700.463 20.8638 706.433 26.8333 713.796 26.8333C721.16 26.8333 727.13 20.8638 727.13 13.5C727.13 6.1362 721.16 0.166667 713.796 0.166667C706.433 0.166667 700.463 6.1362 700.463 13.5ZM716.296 89.5V13.5H711.296V89.5H716.296Z" fill="#FFB3FC"/>
</svg>
