<svg width="35" height="29" viewBox="0 0 35 29" fill="none" xmlns="http://www.w3.org/2000/svg">
<path d="M35 1.8827C34.8528 2.67491 34.6922 3.46712 34.5449 4.27253C33.6883 8.59007 32.8317 12.8944 31.9885 17.2119C31.3327 20.5524 30.6769 23.8929 29.9943 27.2334C29.914 27.6163 29.7667 27.9992 29.5793 28.3292C29.2581 28.897 28.6826 29.1215 28.0535 28.9366C27.652 28.8178 27.2505 28.6593 26.9025 28.4349C24.3595 26.6788 21.8164 24.9095 19.3002 23.1403C19.0191 22.9422 18.8585 22.9554 18.6176 23.1931C17.3729 24.4342 16.1147 25.6489 14.8566 26.8769C14.5086 27.2202 14.1071 27.4578 13.5315 27.4314C13.5449 26.9165 13.5583 26.4147 13.5985 25.913C13.6654 24.8039 13.7323 23.6816 13.7992 22.5725C13.8528 21.5823 13.8929 20.592 13.9732 19.6018C13.9866 19.4565 14.1205 19.3113 14.2409 19.2057C16.5564 17.0667 18.8853 14.9409 21.2141 12.802C23.6902 10.531 26.1663 8.25998 28.6424 5.98898C28.8164 5.83054 29.0707 5.6721 28.9235 5.40803C28.7629 5.13076 28.4551 5.22318 28.2008 5.2892C27.9866 5.35522 27.7859 5.47405 27.5985 5.59288C21.6157 9.39548 15.6463 13.2113 9.69025 17.0403C9.42256 17.2119 9.20841 17.2515 8.90057 17.1591C6.39771 16.4197 3.88145 15.7067 1.3652 14.9805C0.803059 14.8221 0.267686 14.6108 0 14.0167C0 13.9507 0 13.8847 0 13.8186C0.281071 13.2245 0.803059 12.8812 1.39197 12.6303C1.52581 12.5775 1.65966 12.5115 1.80688 12.4587C11.3365 8.65608 20.8795 4.85348 30.4359 1.06409C31.3059 0.720799 32.1625 0.351102 33.0593 0.0738287C33.956 -0.203444 34.7323 0.324695 34.9063 1.24894C34.9197 1.34136 34.9732 1.43379 35 1.53941C35 1.64504 35 1.76387 35 1.8827Z" fill="white"/>
</svg>
