<svg width="30" height="21" viewBox="0 0 30 21" fill="none" xmlns="http://www.w3.org/2000/svg">
<path d="M7.94791 20.987C7.8132 20.987 7.66502 20.987 7.53031 21C7.53031 20.987 7.54378 20.987 7.53031 20.974C7.51684 20.9611 7.4899 20.9611 7.46295 20.9611C7.28783 20.9611 7.11271 20.9481 6.95106 20.9351C6.45263 20.8832 5.96767 20.8183 5.48271 20.7145C4.64751 20.5328 3.83925 20.2602 3.0714 19.8708C2.18231 19.4295 1.40099 18.8714 0.713968 18.1836C0.48496 17.9499 0.269422 17.7033 0.0808271 17.4308C0.067356 17.4048 0.053885 17.3789 0.0134719 17.3659C0.0134719 17.1323 0 16.8986 0 16.665C0 16.665 0 16.665 0 16.652V16.6391C0 16.5482 0 16.4574 0 16.3665C0.0404131 16.3665 0.0404148 16.3276 0.0269437 16.3016C0.0269437 16.055 0.0404123 15.8084 0.0538833 15.5618C0.0673544 15.3282 0.0808279 15.0816 0.0942989 14.848C0.121241 14.5494 0.148184 14.2509 0.175126 13.9654C0.215539 13.576 0.26942 13.1996 0.323304 12.8103C0.417601 12.1873 0.52537 11.5643 0.66008 10.9413C0.79479 10.2923 0.942975 9.65637 1.1181 9.00742C1.30669 8.34549 1.49529 7.68356 1.7243 7.02163C1.85901 6.6063 2.00718 6.20396 2.15537 5.80161C2.3709 5.23053 2.61338 4.65946 2.85586 4.10136C3.03099 3.69901 3.21958 3.30964 3.42164 2.92027C3.44859 2.86836 3.47553 2.82942 3.52941 2.80346C3.77189 2.62176 4.02784 2.45303 4.27032 2.2843C4.99776 1.80408 5.77907 1.40173 6.58734 1.06428C7.11271 0.843634 7.63808 0.674907 8.19039 0.519159C8.64841 0.38937 9.10642 0.298517 9.57791 0.220643C9.75303 0.194685 9.92816 0.168727 10.1033 0.155748C10.1167 0.155748 10.1437 0.155748 10.1437 0.12979C10.3188 0.12979 10.4939 0.12979 10.6556 0.116811C10.6556 0.12979 10.6691 0.142769 10.6691 0.155748C10.7364 0.233622 10.8172 0.324475 10.8846 0.402349C10.8711 0.428307 10.8577 0.428307 10.8307 0.441286C10.3996 0.571076 9.96857 0.713844 9.5375 0.869592C8.78312 1.14215 8.04221 1.45365 7.31478 1.80408C6.85676 2.02472 6.39875 2.27132 5.9542 2.5309C5.42883 2.8424 4.91693 3.17985 4.43197 3.56922C4.36462 3.63412 4.28379 3.68603 4.20297 3.76391C4.47239 3.62114 4.72834 3.49135 4.99776 3.36156C5.25371 3.24475 5.49619 3.11496 5.75214 2.99815C6.34486 2.73857 6.93758 2.50494 7.54378 2.29728C8.28469 2.0377 9.0256 1.83004 9.79345 1.66131C10.1572 1.58344 10.5209 1.50556 10.8846 1.45365C11.3561 1.38875 11.8141 1.32386 12.2856 1.27194C12.811 1.20705 13.3363 1.15513 13.8617 1.12917C14.185 1.10321 14.5083 1.10321 14.8316 1.09024C14.9394 1.09024 15.0337 1.10321 15.1414 1.09024C15.2492 1.09024 15.357 1.09024 15.4513 1.09024C15.7611 1.09024 16.0844 1.10321 16.3943 1.12917C16.7041 1.14215 17.0139 1.16811 17.3238 1.20705C17.93 1.27194 18.5227 1.34982 19.1154 1.46663C19.789 1.59642 20.4625 1.75216 21.1226 1.94685C21.9039 2.16749 22.6583 2.44005 23.3992 2.75155C23.6956 2.86836 23.9784 2.99815 24.2613 3.12794C24.4634 3.21879 24.652 3.30964 24.8675 3.41347C24.8271 3.36156 24.7732 3.32262 24.7328 3.29666C24.3826 3.0241 24.0054 2.7775 23.6147 2.54388C23.1298 2.25834 22.6448 1.99876 22.1329 1.75216C21.7961 1.58344 21.4459 1.44067 21.0822 1.2979C20.2874 0.973424 19.4926 0.700866 18.6709 0.467244C18.6035 0.441286 18.5227 0.441286 18.4553 0.402349C18.5631 0.285538 18.6574 0.168727 18.7652 0.0519161C18.7786 0.0389372 18.8056 0.0259583 18.7786 0.0129793C18.9538 0.0129793 19.1423 0.012979 19.3175 0L19.304 0.0129793C19.304 0.0129793 19.304 0.0129793 19.3175 0.0129793C19.3309 0.0129793 19.3444 0.0259581 19.3579 0.0259581C19.6542 0.051916 19.9641 0.0778739 20.2604 0.12979C21.0418 0.246601 21.7961 0.441286 22.5371 0.687887C23.1837 0.90853 23.8033 1.16811 24.3961 1.4796C24.9618 1.76514 25.5007 2.08962 26.0126 2.45303C26.053 2.47899 26.0799 2.50494 26.0934 2.54388C26.2955 2.89431 26.4706 3.24475 26.6457 3.59518C26.969 4.24413 27.2789 4.91904 27.5483 5.58096C27.7503 6.07417 27.9389 6.56737 28.1275 7.06057C28.3565 7.68356 28.5586 8.31953 28.7472 8.94252C28.8819 9.39679 29.0031 9.85105 29.1244 10.3053C29.2456 10.7985 29.3669 11.2917 29.4612 11.7979C29.542 12.2002 29.6228 12.6156 29.6767 13.0179C29.7306 13.3813 29.7845 13.7577 29.8249 14.1211C29.8653 14.4716 29.8922 14.809 29.9326 15.1595C29.9326 15.1984 29.9326 15.2373 29.9461 15.2633C29.9461 15.2763 29.9596 15.3022 29.9731 15.2763C29.9731 15.3931 29.9731 15.5099 29.9731 15.6267C29.9596 15.6267 29.9596 15.6267 29.9596 15.6397C29.9596 15.6527 29.9596 15.6527 29.9731 15.6527C29.9865 16.068 29.9865 16.4833 30 16.8857C29.9731 16.8986 29.9596 16.9376 29.9461 16.9635C29.6228 17.4438 29.2187 17.8721 28.7876 18.2614C28.4374 18.5729 28.0602 18.8585 27.6695 19.1051C27.0229 19.5204 26.3359 19.8449 25.6084 20.1045C25.1908 20.2472 24.7598 20.377 24.3287 20.4679C23.7899 20.5847 23.251 20.6625 22.6987 20.7145C22.6718 20.7145 22.6448 20.7145 22.6313 20.7274C22.6179 20.7404 22.6313 20.7404 22.6313 20.7534C22.4966 20.7534 22.3485 20.7534 22.2137 20.7664C22.2137 20.7404 22.1868 20.7145 22.1733 20.7015C21.6345 20.0915 21.0956 19.4815 20.5568 18.8585C20.5433 18.8325 20.5164 18.8195 20.5029 18.7806C20.5164 18.7676 20.5299 18.7676 20.5568 18.7546C21.1899 18.56 21.8096 18.3263 22.4023 18.0148C22.8065 17.7942 23.2106 17.5606 23.5743 17.288C23.9246 17.0284 24.2479 16.7429 24.5442 16.4314C24.7194 16.2497 24.881 16.055 25.0292 15.8473C25.0427 15.8344 25.0561 15.8214 25.0427 15.7954C24.7463 15.9901 24.4365 16.1848 24.1266 16.3535C23.736 16.5742 23.3318 16.7818 22.9142 16.9635C22.6448 17.0803 22.3754 17.1842 22.1194 17.301C21.5537 17.5346 20.9879 17.7423 20.3952 17.924C19.7351 18.1316 19.0615 18.2874 18.3745 18.4172C18.0916 18.4691 17.7952 18.521 17.5124 18.56C17.189 18.6119 16.8523 18.6378 16.529 18.6768C16.2461 18.7027 15.9767 18.7287 15.6938 18.7287C15.1953 18.7417 14.6969 18.7546 14.1985 18.7287C13.8617 18.7157 13.5249 18.6897 13.2016 18.6638C12.6089 18.6119 12.0296 18.534 11.4369 18.4172C10.696 18.2744 9.96857 18.1057 9.24113 17.885C8.66188 17.7163 8.09609 17.5216 7.54378 17.314C7.12618 17.1582 6.70858 16.9765 6.31792 16.7818C6.11585 16.678 5.90031 16.5742 5.71172 16.4574C5.50965 16.3276 5.29412 16.2237 5.07858 16.1069C5.07858 16.1069 5.06511 16.0939 5.05164 16.1069C5.06511 16.1459 5.10552 16.1848 5.13247 16.2237C5.348 16.4963 5.60395 16.7559 5.8599 16.9895C6.08891 17.1842 6.31792 17.3789 6.5604 17.5476C7.05883 17.898 7.58419 18.1836 8.13651 18.4302C8.56758 18.6119 9.01213 18.7806 9.47014 18.9104C9.49708 18.9234 9.52402 18.9234 9.55097 18.9363C9.55097 18.9493 9.5375 18.9623 9.5375 18.9623C9.18725 19.3906 8.85047 19.8189 8.50023 20.2472C8.31163 20.4808 8.10957 20.7274 7.92097 20.9611C7.94792 20.9481 7.92097 20.9611 7.94791 20.987ZM7.50337 12.1613C7.51684 12.343 7.53031 12.5247 7.57073 12.7064C7.71891 13.3684 8.05568 13.9265 8.60799 14.3418C9.2546 14.822 9.98204 14.9907 10.7768 14.7831C11.4773 14.6014 12.0027 14.1731 12.3529 13.576C12.7032 12.979 12.811 12.343 12.7167 11.6811C12.6224 11.0321 12.3395 10.487 11.841 10.0328C11.2618 9.52658 10.5882 9.29296 9.80692 9.38381C9.22766 9.4487 8.7427 9.6953 8.33857 10.0977C7.75932 10.6817 7.50337 11.3826 7.50337 12.1613ZM19.5734 14.7182C19.7216 14.7052 19.8698 14.7052 20.0045 14.6663C20.6915 14.5235 21.2304 14.1601 21.621 13.602C22.079 12.953 22.2137 12.2392 22.0925 11.4734C21.9847 10.8375 21.7018 10.2923 21.2034 9.86403C20.5164 9.267 19.7081 9.05933 18.8056 9.30593C18.1455 9.48764 17.6471 9.88999 17.2968 10.4611C16.9466 11.0321 16.8253 11.6422 16.9062 12.2911C16.987 12.9401 17.2564 13.4981 17.7279 13.9654C18.2398 14.4586 18.846 14.7182 19.5734 14.7182Z" fill="white"/>
</svg>
