<svg width="31" height="25" viewBox="0 0 31 25" fill="none" xmlns="http://www.w3.org/2000/svg">
<path d="M31 2.87006C31 2.93495 31 2.98686 31 3.05175C30.9321 3.14259 30.8777 3.23343 30.8098 3.32428C30.1306 4.2976 29.3291 5.16711 28.4053 5.91981C28.025 6.23128 27.8484 6.60763 27.862 7.10078C27.8756 7.65882 27.8348 8.21686 27.794 8.76192C27.5359 11.63 26.6394 14.3164 25.0228 16.7432C20.9338 22.8816 14.9702 25.4642 7.47152 24.9321C5.01271 24.7634 2.70333 24.0366 0.543383 22.9076C0.339614 22.8038 0.1766 22.6091 0 22.4663C0 22.3885 0 22.3106 0 22.2327C0.1766 21.9472 0.448286 21.8694 0.801485 21.8694C2.812 21.8953 4.72743 21.519 6.53418 20.6754C7.11832 20.4029 7.6617 20.0784 8.30017 19.741C8.12357 19.6891 8.05565 19.6632 7.98773 19.6502C6.71078 19.4296 5.59684 18.8845 4.64592 18.0539C3.83084 17.3402 3.24671 16.4966 2.87992 15.4973C2.75766 15.1599 2.89352 14.9912 3.2603 14.9912C3.36898 14.9912 3.47765 15.0172 3.59991 15.0301C3.8716 15.0431 4.14329 15.0561 4.4014 15.0691C4.33348 14.9652 4.26556 14.9263 4.18405 14.8874C1.88825 13.7064 0.652055 11.8766 0.461871 9.38485C0.421117 8.86574 0.624884 8.74894 1.11393 8.94361C1.54864 9.11232 1.98334 9.26805 2.40446 9.42378C2.41805 9.39783 2.43164 9.37187 2.44522 9.35889C2.39089 9.29401 2.33655 9.22912 2.28221 9.16423C0.27169 7.0878 -0.135851 4.24569 1.20902 1.71505C1.38562 1.37763 1.61656 1.33869 1.90184 1.6242C1.99693 1.72802 2.09202 1.83184 2.18711 1.93567C3.50482 3.33725 5.01271 4.51822 6.73795 5.43964C8.96582 6.63358 11.3431 7.33438 13.897 7.54202C14.3589 7.58095 14.4132 7.50309 14.4132 7.06185C14.3996 6.47785 14.3725 5.89386 14.4676 5.32284C15.0789 1.61122 18.7467 -0.543069 22.3602 0.118792C23.4606 0.313457 24.4522 0.754698 25.3216 1.42954C25.6205 1.66314 25.9465 1.80589 26.3405 1.68909C26.6801 1.58527 27.0333 1.5074 27.3593 1.36465C28.0793 1.05318 28.7857 0.702787 29.5057 0.391323C29.628 0.339413 29.8453 0.35239 29.9404 0.417278C30.0219 0.469189 30.0491 0.68981 30.0083 0.806609C29.7231 1.67611 29.2612 2.46775 28.6091 3.14259C28.5276 3.22046 28.4597 3.3113 28.3782 3.38916C28.3918 3.41512 28.4189 3.44108 28.4325 3.48001C29.0574 3.25939 29.6823 3.05175 30.3072 2.80517C30.5925 2.66242 30.8098 2.64944 31 2.87006Z" fill="white"/>
</svg>
